<?xml version="1.0" encoding="UTF-8"?>
<svg xmlns="http://www.w3.org/2000/svg" viewBox="60 430 550 270">
  <g>
    <path fill="#363837" d="M77.21,492.24c1.31.87,2.18,1.74,3.48,2.18,16.55,8.27,35.28,5.66,52.26,0,5.66-2.18,11.32-4.36,16.98-6.53,33.1-13.5,67.5-24.39,103.22-25.7,36.58-1.31,73.17,7.4,108.01,17.86,42.24,12.63,83.18,26.57,126.73,33.1,50.08,7.84,101.04,10.45,151.99,7.4,15.24-.87,30.05-2.18,45.29-3.92,2.18,0,4.36,0,6.53-1.31,2.18-.87,0-1.74-1.74-2.18h-55.75c-18.29,0-37.02-1.31-55.31-3.05-18.29-1.74-37.02-3.92-55.31-6.97s-36.58-6.53-54.44-10.89-35.71-9.15-53.13-15.24c-13.07-3.92-26.13-9.15-38.76-13.94-38.76-15.68-79.26-28.74-121.07-30.05-40.94-1.31-78.39,12.63-114.1,31.79-15.68,8.27-33.1,18.29-51.39,15.68-3.05,0-5.23-.87-7.84-2.18-1.74,0-3.92-1.74-6.1-.87-1.74,0-3.05,2.61-3.05,4.36,0,2.61,0,4.79.87,7.4.44,1.31.87,2.18,2.18,3.05h.45Z"/>
    <path fill="#363837" d="M1029.68,502.25c-2.61-.87-4.79-2.18-7.84-3.05-27.44-9.58-56.62-17.42-85.8-20.47-30.49-3.05-60.97-1.31-91.02,0-27.44.87-55.75,0-82.75-4.79-34.41-7.4-66.2-24.39-99.3-37.45-34.84-13.5-70.99-25.7-107.57-33.97-39.63-9.58-81-14.37-121.94-13.07-40.94,1.31-80.13,10.89-118.89,23.52-3.05.87-6.1,2.18-8.71,3.05l-7.84,2.61-11.76,3.92-9.58,3.48,2.61-1.31c1.74-.87,3.92-2.18,7.4-3.48s6.97-3.48,11.32-5.23c2.18-1.31,4.36-2.18,7.4-3.48,2.61-1.31,5.23-2.61,8.71-3.48,38.76-16.11,78.83-28.74,120.64-32.66,44.42-3.48,88.41,1.74,131.52,10.89,37.45,8.27,73.6,19.6,108.88,33.53,27,10.89,54.44,22.21,82.31,30.92,29.61,8.71,59.23,9.15,90.15,9.15,40.5-.87,79.7,0,119.33,8.27,22.21,4.36,43.12,12.19,63.58,21.78,20.47,9.15,39.63,20.47,58.36,32.23,3.48,2.18,6.97,4.36,10.02,6.97,3.48,3.05,6.53,6.97,8.71,11.32v1.31h-1.74c-3.92-1.74-6.1-3.92-9.58-6.97s-7.4-5.66-11.32-7.84c-9.58-5.66-20.03-10.89-30.49-15.68-8.27-3.48-16.55-6.53-24.82-9.15h0v-.87h.01Z"/>
  </g>
  <path fill="#e75e29" d="M128.59,572.61c10.7,0,20.29,1.78,28.32,5.35s14.05,8.7,18.51,15.39,6.47,14.5,6.47,23.64-2.01,16.95-6.47,23.64-10.7,11.6-18.51,15.17-17.4,5.35-28.32,5.35h-20.96v31.45h-33.9v-119.98h54.86ZM126.36,634.38c7.14,0,12.27-1.56,15.83-4.68s5.35-7.36,5.35-12.93-1.78-10.04-5.35-13.16c-3.57-3.12-8.7-4.68-15.83-4.68h-18.73v35.24h18.73v.22h0Z"/>
  <path fill="#e75e29" d="M295.41,669.17h-50.62l-9.37,23.42h-34.57l52.85-119.98h33.23l53.08,119.98h-35.24l-9.59-23.42h.23ZM285.37,644.2l-15.39-38.58-15.39,38.36h30.78v.22Z"/>
  <path fill="#e75e29" d="M466.02,665.61v26.76h-107.49v-21.19l60.66-71.81h-58.88v-26.76h103.26v21.19l-60.66,71.81h63.11Z"/>
  <path fill="#e75e29" d="M597.37,665.61v26.76h-107.49v-21.19l60.66-71.81h-59.1v-26.76h103.26v21.19l-60.66,71.81h63.34-.01Z"/>
</svg>
