<?xml version="1.0" encoding="UTF-8"?>
<svg id="Capa_1" xmlns="http://www.w3.org/2000/svg" version="1.1" viewBox="55 360 1060 345">
  <!-- Generator: Adobe Illustrator 29.8.1, SVG Export Plug-In . SVG Version: 2.1.1 Build 2)  -->
  <defs>
    <style>
      .st0 {
        fill: #fff;
      }

      .st1 {
        fill: #363837;
      }

      .st2 {
        fill: #040303;
      }

      .st3 {
        fill: #e75e29;
      }
    </style>
  </defs>
  <g>
    <path class="st0" d="M77.21,480.87c1.31.87,2.18,1.74,3.48,2.18,16.55,8.27,35.28,5.66,52.26,0,5.66-2.18,11.32-4.36,16.98-6.53,33.1-13.5,67.5-24.39,103.22-25.7,36.58-1.31,73.17,7.4,108.01,17.86,42.24,12.63,83.18,26.57,126.73,33.1,50.08,7.84,101.04,10.45,151.99,7.4,15.24-.87,30.05-2.18,45.29-3.92,2.18,0,4.36,0,6.53-1.31,2.18-.87,0-1.74-1.74-2.18h-55.75c-18.29,0-37.02-1.31-55.31-3.05-18.29-1.74-37.02-3.92-55.31-6.97-18.29-3.05-36.58-6.53-54.44-10.89-17.86-4.36-35.71-9.15-53.13-15.24-13.07-3.92-26.13-9.15-38.76-13.94-38.76-15.68-79.26-28.74-121.07-30.05-40.94-1.31-78.39,12.63-114.1,31.79-15.68,8.27-33.1,18.29-51.39,15.68-3.05,0-5.23-.87-7.84-2.18-1.74,0-3.92-1.74-6.1-.87-1.74,0-3.05,2.61-3.05,4.36,0,2.61,0,4.79.87,7.4.44,1.31.87,2.18,2.18,3.05h.44Z"/>
    <path class="st0" d="M1029.67,490.88c-2.61-.87-4.79-2.18-7.84-3.05-27.44-9.58-56.62-17.42-85.8-20.47-30.49-3.05-60.97-1.31-91.02,0-27.44.87-55.75,0-82.75-4.79-34.41-7.4-66.2-24.39-99.3-37.45-34.84-13.5-70.99-25.7-107.57-33.97-39.63-9.58-81-14.37-121.94-13.07-40.94,1.31-80.13,10.89-118.89,23.52-3.05.87-6.1,2.18-8.71,3.05l-7.84,2.61-11.76,3.92-9.58,3.48,2.61-1.31c1.74-.87,3.92-2.18,7.4-3.48s6.97-3.48,11.32-5.23c2.18-1.31,4.36-2.18,7.4-3.48,2.61-1.31,5.23-2.61,8.71-3.48,38.76-16.11,78.83-28.74,120.64-32.66,44.42-3.48,88.41,1.74,131.52,10.89,37.45,8.27,73.6,19.6,108.88,33.53,27,10.89,54.44,22.21,82.31,30.92,29.61,8.71,59.23,9.15,90.15,9.15,40.5-.87,79.7,0,119.33,8.27,22.21,4.36,43.12,12.19,63.58,21.78,20.47,9.15,39.63,20.47,58.36,32.23,3.48,2.18,6.97,4.36,10.02,6.97,3.48,3.05,6.53,6.97,8.71,11.32v1.31h-1.74c-3.92-1.74-6.1-3.92-9.58-6.97-3.48-3.05-7.4-5.66-11.32-7.84-9.58-5.66-20.03-10.89-30.49-15.68-8.27-3.48-16.55-6.53-24.82-9.15h0v-.87Z"/>
  </g>
  <g>
    <path class="st0" d="M123.65,562.2c5.58-2.99,11.95-4.49,19.11-4.49,8.34,0,15.88,2.06,22.63,6.16,6.75,4.11,12.09,9.95,16.03,17.52,3.93,7.57,5.9,16.35,5.9,26.33s-1.97,18.82-5.9,26.5c-3.94,7.69-9.28,13.65-16.03,17.88-6.75,4.23-14.3,6.34-22.63,6.34-7.16,0-13.47-1.47-18.93-4.4s-9.89-6.63-13.3-11.1v60.41h-24.66v-144.06h24.66v14.09c3.17-4.46,7.54-8.19,13.12-11.18ZM158.53,592.5c-2.41-4.28-5.58-7.54-9.51-9.77-3.94-2.23-8.19-3.35-12.77-3.35s-8.66,1.14-12.59,3.43c-3.94,2.29-7.1,5.61-9.51,9.95-2.41,4.34-3.61,9.45-3.61,15.32s1.2,10.98,3.61,15.32c2.4,4.35,5.57,7.66,9.51,9.95,3.93,2.29,8.13,3.43,12.59,3.43s8.83-1.17,12.77-3.52c3.93-2.35,7.1-5.69,9.51-10.04,2.41-4.34,3.61-9.51,3.61-15.5s-1.21-10.95-3.61-15.23Z"/>
    <path class="st0" d="M204.84,581.49c3.93-7.63,9.27-13.5,16.03-17.61,6.75-4.11,14.29-6.16,22.63-6.16,7.28,0,13.65,1.47,19.11,4.4,5.46,2.94,9.83,6.63,13.12,11.1v-13.91h24.83v97.57h-24.83v-14.27c-3.17,4.58-7.55,8.37-13.12,11.36-5.58,2.99-12.01,4.49-19.28,4.49-8.22,0-15.7-2.11-22.45-6.34-6.75-4.23-12.09-10.18-16.03-17.88-3.94-7.69-5.9-16.52-5.9-26.5s1.96-18.61,5.9-26.24ZM272.21,592.67c-2.35-4.28-5.52-7.57-9.51-9.86-3.99-2.29-8.28-3.43-12.86-3.43s-8.81,1.12-12.68,3.35c-3.87,2.23-7.02,5.49-9.42,9.77-2.41,4.29-3.61,9.36-3.61,15.23s1.2,11.01,3.61,15.41c2.41,4.4,5.58,7.78,9.51,10.13,3.93,2.35,8.13,3.52,12.59,3.52s8.86-1.14,12.86-3.43c3.99-2.29,7.16-5.58,9.51-9.86,2.35-4.28,3.52-9.42,3.52-15.41s-1.17-11.12-3.52-15.41Z"/>
    <path class="st0" d="M347.23,636.61h43.5v20.25h-71.5v-19.9l42.62-57.41h-42.44v-20.25h70.8v19.9l-42.97,57.41Z"/>
    <path class="st0" d="M432.29,636.61h43.5v20.25h-71.5v-19.9l42.62-57.41h-42.44v-20.25h70.8v19.9l-42.97,57.41Z"/>
  </g>
  <g>
    <path class="st0" d="M538.81,594.18c4.34-2.33,9.29-3.49,14.86-3.49,6.48,0,12.35,1.6,17.6,4.79,5.25,3.2,9.4,7.74,12.46,13.63,3.06,5.89,4.59,12.72,4.59,20.48s-1.53,14.64-4.59,20.62c-3.06,5.98-7.21,10.62-12.46,13.9-5.25,3.29-11.12,4.93-17.6,4.93-5.57,0-10.48-1.14-14.73-3.42-4.25-2.28-7.69-5.16-10.34-8.63v46.98h-19.18v-112.05h19.18v10.96c2.47-3.47,5.87-6.37,10.2-8.7ZM565.93,617.74c-1.87-3.33-4.34-5.87-7.4-7.6-3.06-1.73-6.37-2.6-9.93-2.6s-6.74.89-9.79,2.67c-3.06,1.78-5.53,4.36-7.4,7.74-1.87,3.38-2.81,7.35-2.81,11.92s.94,8.54,2.81,11.92c1.87,3.38,4.34,5.96,7.4,7.74,3.06,1.78,6.32,2.67,9.79,2.67s6.87-.91,9.93-2.74c3.06-1.83,5.52-4.43,7.4-7.81,1.87-3.38,2.81-7.4,2.81-12.05s-.94-8.51-2.81-11.85Z"/>
    <path class="st0" d="M601.96,609.17c3.06-5.94,7.21-10.5,12.47-13.7,5.25-3.2,11.12-4.79,17.6-4.79,5.66,0,10.62,1.14,14.86,3.42,4.25,2.28,7.65,5.16,10.21,8.63v-10.82h19.31v75.89h-19.31v-11.1c-2.47,3.56-5.87,6.51-10.21,8.83-4.34,2.33-9.34,3.49-15,3.49-6.39,0-12.21-1.64-17.46-4.93-5.25-3.29-9.41-7.92-12.47-13.9-3.06-5.98-4.59-12.85-4.59-20.62s1.53-14.47,4.59-20.41ZM654.35,617.87c-1.83-3.33-4.29-5.89-7.4-7.67-3.11-1.78-6.44-2.67-10-2.67s-6.85.87-9.86,2.6c-3.01,1.74-5.46,4.27-7.33,7.6-1.87,3.33-2.81,7.28-2.81,11.85s.94,8.56,2.81,11.99c1.87,3.42,4.34,6.05,7.4,7.88,3.06,1.83,6.32,2.74,9.79,2.74s6.89-.89,10-2.67c3.1-1.78,5.57-4.34,7.4-7.67,1.83-3.33,2.74-7.33,2.74-11.99s-.91-8.65-2.74-11.99Z"/>
    <path class="st0" d="M724,594.66c3.97-2.56,8.51-3.84,13.63-3.84v20.14h-5.07c-6.03,0-10.57,1.42-13.63,4.25-3.06,2.83-4.59,7.76-4.59,14.79v37.81h-19.18v-75.89h19.18v13.42c2.47-4.57,5.68-8.13,9.66-10.68Z"/>
    <path class="st0" d="M772.83,607.67v36.71c0,2.56.62,4.41,1.85,5.55,1.23,1.14,3.31,1.71,6.23,1.71h8.9v16.16h-12.05c-16.16,0-24.25-7.85-24.25-23.56v-36.57h-9.04v-15.75h9.04v-18.77h19.31v18.77h16.99v15.75h-16.99Z"/>
    <path class="st0" d="M867.62,599.38c5.57,5.71,8.36,13.68,8.36,23.9v44.52h-19.18v-41.92c0-6.03-1.51-10.66-4.52-13.9-3.01-3.24-7.12-4.86-12.33-4.86s-9.48,1.62-12.53,4.86c-3.06,3.24-4.59,7.88-4.59,13.9v41.92h-19.18v-75.89h19.18v9.45c2.56-3.29,5.82-5.87,9.79-7.74,3.97-1.87,8.33-2.81,13.08-2.81,9.04,0,16.35,2.85,21.92,8.56Z"/>
    <path class="st0" d="M964.19,635.2h-55.48c.36,5.57,2.24,9.95,5.62,13.15,3.38,3.2,7.58,4.79,12.6,4.79,7.12,0,12.19-3.06,15.2-9.18h20.68c-2.19,7.31-6.39,13.31-12.6,18.01-6.21,4.7-13.83,7.05-22.88,7.05-7.31,0-13.86-1.62-19.66-4.86-5.8-3.24-10.32-7.83-13.56-13.77-3.24-5.94-4.86-12.78-4.86-20.55s1.6-14.75,4.79-20.68c3.2-5.94,7.67-10.5,13.42-13.7,5.75-3.2,12.37-4.79,19.86-4.79s13.67,1.55,19.38,4.66c5.71,3.11,10.14,7.49,13.29,13.15,3.15,5.66,4.73,12.19,4.73,19.59,0,2.56-.18,4.93-.55,7.12ZM944.88,623.56c-.09-5.3-1.85-9.47-5.27-12.53-3.42-3.06-7.69-4.59-12.81-4.59-4.84,0-8.9,1.53-12.19,4.59-3.29,3.06-5.25,7.24-5.89,12.53h36.16Z"/>
    <path class="st0" d="M1007.54,594.66c3.97-2.56,8.51-3.84,13.63-3.84v20.14h-5.07c-6.03,0-10.57,1.42-13.63,4.25-3.06,2.83-4.59,7.76-4.59,14.79v37.81h-19.18v-75.89h19.18v13.42c2.47-4.57,5.68-8.13,9.66-10.68Z"/>
  </g>
  <g>
    <rect class="st0" x="1069.32" y="573.15" width="16.35" height="97.56"/>
    <rect class="st0" x="1069.32" y="573.15" width="16.35" height="97.56" transform="translate(1699.42 -455.56) rotate(90)"/>
  </g>
  <g>
    <path class="st1" d="M77.21,492.24c1.31.87,2.18,1.74,3.48,2.18,16.55,8.27,35.28,5.66,52.26,0,5.66-2.18,11.32-4.36,16.98-6.53,33.1-13.5,67.5-24.39,103.22-25.7,36.58-1.31,73.17,7.4,108.01,17.86,42.24,12.63,83.18,26.57,126.73,33.1,50.08,7.84,101.04,10.45,151.99,7.4,15.24-.87,30.05-2.18,45.29-3.92,2.18,0,4.36,0,6.53-1.31,2.18-.87,0-1.74-1.74-2.18h-55.75c-18.29,0-37.02-1.31-55.31-3.05-18.29-1.74-37.02-3.92-55.31-6.97s-36.58-6.53-54.44-10.89-35.71-9.15-53.13-15.24c-13.07-3.92-26.13-9.15-38.76-13.94-38.76-15.68-79.26-28.74-121.07-30.05-40.94-1.31-78.39,12.63-114.1,31.79-15.68,8.27-33.1,18.29-51.39,15.68-3.05,0-5.23-.87-7.84-2.18-1.74,0-3.92-1.74-6.1-.87-1.74,0-3.05,2.61-3.05,4.36,0,2.61,0,4.79.87,7.4.44,1.31.87,2.18,2.18,3.05h.45Z"/>
    <path class="st1" d="M1029.68,502.25c-2.61-.87-4.79-2.18-7.84-3.05-27.44-9.58-56.62-17.42-85.8-20.47-30.49-3.05-60.97-1.31-91.02,0-27.44.87-55.75,0-82.75-4.79-34.41-7.4-66.2-24.39-99.3-37.45-34.84-13.5-70.99-25.7-107.57-33.97-39.63-9.58-81-14.37-121.94-13.07-40.94,1.31-80.13,10.89-118.89,23.52-3.05.87-6.1,2.18-8.71,3.05l-7.84,2.61-11.76,3.92-9.58,3.48,2.61-1.31c1.74-.87,3.92-2.18,7.4-3.48s6.97-3.48,11.32-5.23c2.18-1.31,4.36-2.18,7.4-3.48,2.61-1.31,5.23-2.61,8.71-3.48,38.76-16.11,78.83-28.74,120.64-32.66,44.42-3.48,88.41,1.74,131.52,10.89,37.45,8.27,73.6,19.6,108.88,33.53,27,10.89,54.44,22.21,82.31,30.92,29.61,8.71,59.23,9.15,90.15,9.15,40.5-.87,79.7,0,119.33,8.27,22.21,4.36,43.12,12.19,63.58,21.78,20.47,9.15,39.63,20.47,58.36,32.23,3.48,2.18,6.97,4.36,10.02,6.97,3.48,3.05,6.53,6.97,8.71,11.32v1.31h-1.74c-3.92-1.74-6.1-3.92-9.58-6.97s-7.4-5.66-11.32-7.84c-9.58-5.66-20.03-10.89-30.49-15.68-8.27-3.48-16.55-6.53-24.82-9.15h0v-.87h.01Z"/>
  </g>
  <g>
    <path class="st2" d="M641.95,601.86c3.58-1.92,7.66-2.88,12.25-2.88,5.34,0,10.18,1.32,14.51,3.95,4.33,2.64,7.75,6.38,10.28,11.24,2.52,4.86,3.78,10.48,3.78,16.88s-1.26,12.07-3.78,17-5.95,8.75-10.28,11.46-9.17,4.07-14.51,4.07c-4.59,0-8.64-.94-12.14-2.82s-6.34-4.25-8.53-7.11v38.74h-15.81v-92.38h15.81v9.03c2.03-2.86,4.84-5.25,8.41-7.17h.01ZM664.31,621.28c-1.54-2.75-3.58-4.84-6.1-6.27-2.52-1.43-5.25-2.15-8.19-2.15s-5.55.73-8.07,2.2-4.56,3.6-6.1,6.38c-1.54,2.79-2.32,6.06-2.32,9.82s.77,7.04,2.32,9.82c1.54,2.79,3.57,4.91,6.1,6.38,2.52,1.47,5.21,2.2,8.07,2.2s5.66-.75,8.19-2.26c2.52-1.51,4.55-3.65,6.1-6.44,1.54-2.78,2.32-6.1,2.32-9.94s-.77-7.02-2.32-9.77v.03Z"/>
    <path class="st2" d="M694.01,614.22c2.52-4.89,5.95-8.66,10.28-11.29,4.33-2.63,9.16-3.95,14.51-3.95,4.67,0,8.75.94,12.25,2.82s6.3,4.25,8.41,7.11v-8.92h15.92v62.56h-15.92v-9.15c-2.03,2.94-4.84,5.36-8.41,7.28-3.58,1.92-7.7,2.88-12.37,2.88-5.27,0-10.07-1.36-14.4-4.07-4.33-2.71-7.76-6.53-10.28-11.46s-3.78-10.6-3.78-17,1.26-11.93,3.78-16.83v.02ZM737.2,621.39c-1.51-2.75-3.54-4.86-6.1-6.32-2.56-1.47-5.31-2.2-8.24-2.2s-5.65.72-8.13,2.15-4.5,3.52-6.04,6.27-2.32,6-2.32,9.77.77,7.06,2.32,9.88c1.54,2.82,3.58,4.99,6.1,6.49,2.52,1.51,5.21,2.26,8.07,2.26s5.68-.73,8.24-2.2,4.59-3.57,6.1-6.32c1.51-2.75,2.26-6.04,2.26-9.88s-.75-7.13-2.26-9.88v-.02Z"/>
    <path class="st2" d="M794.63,602.25c3.28-2.11,7.02-3.16,11.24-3.16v16.6h-4.18c-4.97,0-8.71,1.17-11.24,3.5-2.52,2.33-3.78,6.4-3.78,12.2v31.17h-15.81v-62.56h15.81v11.07c2.03-3.76,4.69-6.7,7.96-8.81h0Z"/>
    <path class="st2" d="M834.89,612.98v30.27c0,2.11.51,3.63,1.52,4.57,1.02.94,2.73,1.41,5.14,1.41h7.34v13.33h-9.94c-13.33,0-19.99-6.47-19.99-19.42v-30.15h-7.45v-12.99h7.45v-15.47h15.92v15.47h14v12.99h-14,0Z"/>
    <path class="st2" d="M913.03,606.15c4.59,4.71,6.89,11.28,6.89,19.71v36.7h-15.81v-34.56c0-4.97-1.24-8.79-3.73-11.46-2.48-2.67-5.87-4.01-10.16-4.01s-7.81,1.34-10.33,4.01-3.78,6.49-3.78,11.46v34.56h-15.81v-62.56h15.81v7.79c2.11-2.71,4.8-4.84,8.07-6.38,3.27-1.54,6.87-2.32,10.78-2.32,7.45,0,13.48,2.35,18.07,7.06h0Z"/>
    <path class="st2" d="M992.65,635.68h-45.74c.3,4.59,1.84,8.21,4.63,10.84,2.78,2.64,6.25,3.95,10.39,3.95,5.87,0,10.05-2.52,12.54-7.57h17.05c-1.81,6.02-5.27,10.97-10.39,14.85s-11.41,5.82-18.86,5.82c-6.02,0-11.43-1.34-16.21-4.01s-8.51-6.45-11.18-11.35c-2.67-4.89-4.01-10.54-4.01-16.94s1.32-12.16,3.95-17.05,6.32-8.66,11.07-11.29c4.74-2.63,10.2-3.95,16.37-3.95s11.27,1.28,15.98,3.84c4.7,2.56,8.36,6.17,10.95,10.84,2.6,4.67,3.9,10.05,3.9,16.15,0,2.11-.15,4.07-.45,5.87h.01ZM976.74,626.08c-.08-4.37-1.52-7.81-4.35-10.33-2.82-2.52-6.34-3.78-10.56-3.78-3.99,0-7.34,1.26-10.05,3.78-2.71,2.52-4.33,5.97-4.86,10.33h29.82Z"/>
    <path class="st2" d="M1028.39,602.25c3.28-2.11,7.02-3.16,11.24-3.16v16.6h-4.18c-4.97,0-8.71,1.17-11.24,3.5-2.52,2.33-3.78,6.4-3.78,12.2v31.17h-15.81v-62.56h15.81v11.07c2.03-3.76,4.69-6.7,7.96-8.81h0Z"/>
  </g>
  <g>
    <rect class="st2" x="1079.32" y="584.52" width="13.48" height="80.43"/>
    <rect class="st2" x="1045.85" y="618" width="80.43" height="13.48"/>
  </g>
  <path class="st3" d="M128.59,572.61c10.7,0,20.29,1.78,28.32,5.35s14.05,8.7,18.51,15.39,6.47,14.5,6.47,23.64-2.01,16.95-6.47,23.64-10.7,11.6-18.51,15.17-17.4,5.35-28.32,5.35h-20.96v31.45h-33.9v-119.98h54.86ZM126.36,634.38c7.14,0,12.27-1.56,15.83-4.68s5.35-7.36,5.35-12.93-1.78-10.04-5.35-13.16c-3.57-3.12-8.7-4.68-15.83-4.68h-18.73v35.24h18.73v.22h0Z"/>
  <path class="st3" d="M295.41,669.17h-50.62l-9.37,23.42h-34.57l52.85-119.98h33.23l53.08,119.98h-35.24l-9.59-23.42h.23ZM285.37,644.2l-15.39-38.58-15.39,38.36h30.78v.22Z"/>
  <path class="st3" d="M466.02,665.61v26.76h-107.49v-21.19l60.66-71.81h-58.88v-26.76h103.26v21.19l-60.66,71.81h63.11Z"/>
  <path class="st3" d="M597.37,665.61v26.76h-107.49v-21.19l60.66-71.81h-59.1v-26.76h103.26v21.19l-60.66,71.81h63.34-.01Z"/>
</svg>