<?xml version="1.0" encoding="UTF-8"?>
<svg xmlns="http://www.w3.org/2000/svg" viewBox="0 0 32 32">
  <rect width="32" height="32" fill="#ffffff" rx="4"/>
  <g transform="translate(2, 4) scale(0.11)">
    <path fill="#e85a24" d="M26.99,47.72c4.84,0,9.06.84,12.7,2.42,3.56,1.58,6.34,3.92,8.31,6.9s2.9,6.55,2.9,10.55-.93,7.56-2.9,10.55-4.75,5.23-8.31,6.81-7.83,2.42-12.7,2.42h-9.35v14.11H2.42v-53.77h24.57ZM26.03,75.43c3.17,0,5.5-.66,7.08-2.06s2.42-3.26,2.42-5.8-.84-4.48-2.42-5.89c-1.58-1.4-3.92-2.06-7.08-2.06h-8.4v15.81h8.4Z"/>
    <path fill="#e85a24" d="M101.77,91.03h-22.68l-4.21,10.46h-15.51l23.73-53.77h14.94l23.82,53.77h-15.78l-4.3-10.46ZM97.29,79.82l-6.9-17.27-6.9,17.19h13.81s0,.09,0,.09Z"/>
    <path fill="#e85a24" d="M178.3,89.44v12.04h-48.18v-9.53l27.17-32.22h-26.42v-12.01h46.3v9.53l-27.17,32.19h28.3Z"/>
    <path fill="#e85a24" d="M237.16,89.44v12.04h-48.18v-9.53l27.17-32.22h-26.51v-12.01h46.3v9.53l-27.17,32.22h28.39v-.03Z"/>
  </g>
</svg>