<?xml version="1.0" encoding="UTF-8"?>
<svg id="Capa_1" xmlns="http://www.w3.org/2000/svg" version="1.1" viewBox="55 360 1060 345">
  <!-- Generator: Adobe Illustrator 29.8.1, SVG Export Plug-In . SVG Version: 2.1.1 Build 2)  -->
  <defs>
    <style>
      .st0 {
        fill: #e65c27;
      }

      .st1 {
        fill: #fff;
      }
    </style>
  </defs>
  <g>
    <path class="st1" d="M81.98,483.43c1.31.87,2.18,1.74,3.48,2.18,16.55,8.27,35.28,5.66,52.26,0,5.66-2.18,11.32-4.36,16.98-6.53,33.1-13.5,67.5-24.39,103.22-25.7,36.58-1.31,73.17,7.4,108.01,17.86,42.24,12.63,83.18,26.57,126.73,33.1,50.08,7.84,101.04,10.45,151.99,7.4,15.24-.87,30.05-2.18,45.29-3.92,2.18,0,4.36,0,6.53-1.31,2.18-.87,0-1.74-1.74-2.18h-55.75c-18.29,0-37.02-1.31-55.31-3.05-18.29-1.74-37.02-3.92-55.31-6.97-18.29-3.05-36.58-6.53-54.44-10.89-17.86-4.36-35.71-9.15-53.13-15.24-13.07-3.92-26.13-9.15-38.76-13.94-38.76-15.68-79.26-28.74-121.07-30.05-40.94-1.31-78.39,12.63-114.1,31.79-15.68,8.27-33.1,18.29-51.39,15.68-3.05,0-5.23-.87-7.84-2.18-1.74,0-3.92-1.74-6.1-.87-1.74,0-3.05,2.61-3.05,4.36,0,2.61,0,4.79.87,7.4.44,1.31.87,2.18,2.18,3.05h.44Z"/>
    <path class="st1" d="M1034.44,493.45c-2.61-.87-4.79-2.18-7.84-3.05-27.44-9.58-56.62-17.42-85.8-20.47-30.49-3.05-60.97-1.31-91.02,0-27.44.87-55.75,0-82.75-4.79-34.41-7.4-66.2-24.39-99.3-37.45-34.84-13.5-70.99-25.7-107.57-33.97-39.63-9.58-81-14.37-121.94-13.07-40.94,1.31-80.13,10.89-118.89,23.52-3.05.87-6.1,2.18-8.71,3.05l-7.84,2.61-11.76,3.92-9.58,3.48,2.61-1.31c1.74-.87,3.92-2.18,7.4-3.48s6.97-3.48,11.32-5.23c2.18-1.31,4.36-2.18,7.4-3.48,2.61-1.31,5.23-2.61,8.71-3.48,38.76-16.11,78.83-28.74,120.64-32.66,44.42-3.48,88.41,1.74,131.52,10.89,37.45,8.27,73.6,19.6,108.88,33.53,27,10.89,54.44,22.21,82.31,30.92,29.61,8.71,59.23,9.15,90.15,9.15,40.5-.87,79.7,0,119.33,8.27,22.21,4.36,43.12,12.19,63.58,21.78,20.47,9.15,39.63,20.47,58.36,32.23,3.48,2.18,6.97,4.36,10.02,6.97,3.48,3.05,6.53,6.97,8.71,11.32v1.31h-1.74c-3.92-1.74-6.1-3.92-9.58-6.97-3.48-3.05-7.4-5.66-11.32-7.84-9.58-5.66-20.03-10.89-30.49-15.68-8.27-3.48-16.55-6.53-24.82-9.15h0v-.87Z"/>
  </g>
  <g>
    <path class="st1" d="M646.72,593.05c3.58-1.92,7.66-2.88,12.25-2.88,5.34,0,10.18,1.32,14.51,3.95,4.33,2.64,7.75,6.38,10.28,11.24,2.52,4.86,3.78,10.48,3.78,16.88s-1.26,12.07-3.78,17c-2.52,4.93-5.95,8.75-10.28,11.46-4.33,2.71-9.17,4.07-14.51,4.07-4.59,0-8.64-.94-12.14-2.82-3.5-1.88-6.34-4.25-8.53-7.11v38.74h-15.81v-92.38h15.81v9.03c2.03-2.86,4.84-5.25,8.41-7.17ZM669.08,612.47c-1.54-2.75-3.58-4.84-6.1-6.27-2.52-1.43-5.25-2.15-8.19-2.15s-5.55.73-8.07,2.2c-2.52,1.47-4.56,3.6-6.1,6.38-1.54,2.79-2.32,6.06-2.32,9.82s.77,7.04,2.32,9.82c1.54,2.79,3.57,4.91,6.1,6.38,2.52,1.47,5.21,2.2,8.07,2.2s5.66-.75,8.19-2.26c2.52-1.51,4.55-3.65,6.1-6.44,1.54-2.78,2.32-6.1,2.32-9.94s-.77-7.02-2.32-9.77Z"/>
    <path class="st1" d="M698.78,605.41c2.52-4.89,5.95-8.66,10.28-11.29,4.33-2.63,9.16-3.95,14.51-3.95,4.67,0,8.75.94,12.25,2.82,3.5,1.88,6.3,4.25,8.41,7.11v-8.92h15.92v62.56h-15.92v-9.15c-2.03,2.94-4.84,5.36-8.41,7.28-3.58,1.92-7.7,2.88-12.37,2.88-5.27,0-10.07-1.36-14.4-4.07-4.33-2.71-7.76-6.53-10.28-11.46-2.52-4.93-3.78-10.6-3.78-17s1.26-11.93,3.78-16.83ZM741.97,612.58c-1.51-2.75-3.54-4.86-6.1-6.32-2.56-1.47-5.31-2.2-8.24-2.2s-5.65.72-8.13,2.15c-2.48,1.43-4.5,3.52-6.04,6.27-1.54,2.75-2.32,6-2.32,9.77s.77,7.06,2.32,9.88c1.54,2.82,3.58,4.99,6.1,6.49,2.52,1.51,5.21,2.26,8.07,2.26s5.68-.73,8.24-2.2c2.56-1.47,4.59-3.57,6.1-6.32,1.51-2.75,2.26-6.04,2.26-9.88s-.75-7.13-2.26-9.88Z"/>
    <path class="st1" d="M799.4,593.44c3.28-2.11,7.02-3.16,11.24-3.16v16.6h-4.18c-4.97,0-8.71,1.17-11.24,3.5-2.52,2.33-3.78,6.4-3.78,12.2v31.17h-15.81v-62.56h15.81v11.07c2.03-3.76,4.69-6.7,7.96-8.81Z"/>
    <path class="st1" d="M839.65,604.17v30.27c0,2.11.51,3.63,1.52,4.57,1.02.94,2.73,1.41,5.14,1.41h7.34v13.33h-9.94c-13.33,0-19.99-6.47-19.99-19.42v-30.15h-7.45v-12.99h7.45v-15.47h15.92v15.47h14v12.99h-14Z"/>
    <path class="st1" d="M917.8,597.34c4.59,4.71,6.89,11.28,6.89,19.71v36.7h-15.81v-34.56c0-4.97-1.24-8.79-3.73-11.46-2.48-2.67-5.87-4.01-10.16-4.01s-7.81,1.34-10.33,4.01c-2.52,2.67-3.78,6.49-3.78,11.46v34.56h-15.81v-62.56h15.81v7.79c2.11-2.71,4.8-4.84,8.07-6.38,3.27-1.54,6.87-2.32,10.78-2.32,7.45,0,13.48,2.35,18.07,7.06Z"/>
    <path class="st1" d="M997.41,626.87h-45.74c.3,4.59,1.84,8.21,4.63,10.84,2.78,2.64,6.25,3.95,10.39,3.95,5.87,0,10.05-2.52,12.54-7.57h17.05c-1.81,6.02-5.27,10.97-10.39,14.85-5.12,3.88-11.41,5.82-18.86,5.82-6.02,0-11.43-1.34-16.21-4.01-4.78-2.67-8.51-6.45-11.18-11.35-2.67-4.89-4.01-10.54-4.01-16.94s1.32-12.16,3.95-17.05c2.63-4.89,6.32-8.66,11.07-11.29,4.74-2.63,10.2-3.95,16.37-3.95s11.27,1.28,15.98,3.84c4.7,2.56,8.36,6.17,10.95,10.84,2.6,4.67,3.9,10.05,3.9,16.15,0,2.11-.15,4.07-.45,5.87ZM981.49,617.27c-.08-4.37-1.52-7.81-4.35-10.33-2.82-2.52-6.34-3.78-10.56-3.78-3.99,0-7.34,1.26-10.05,3.78-2.71,2.52-4.33,5.97-4.86,10.33h29.81Z"/>
    <path class="st1" d="M1033.16,593.44c3.28-2.11,7.02-3.16,11.24-3.16v16.6h-4.18c-4.97,0-8.71,1.17-11.24,3.5-2.52,2.33-3.78,6.4-3.78,12.2v31.17h-15.81v-62.56h15.81v11.07c2.03-3.76,4.69-6.7,7.96-8.81Z"/>
  </g>
  <g>
    <rect class="st1" x="1084.09" y="575.71" width="13.48" height="80.43"/>
    <rect class="st1" x="1084.09" y="575.71" width="13.48" height="80.43" transform="translate(1706.76 -474.9) rotate(90)"/>
  </g>
  <path class="st0" d="M133.36,563.8c10.7,0,20.29,1.78,28.32,5.35,8.03,3.57,14.05,8.7,18.51,15.39,4.46,6.69,6.47,14.5,6.47,23.64s-2.01,16.95-6.47,23.64c-4.46,6.69-10.7,11.6-18.51,15.17s-17.4,5.35-28.32,5.35h-20.96v31.45h-33.9v-119.98s54.86,0,54.86,0ZM131.13,625.58c7.14,0,12.27-1.56,15.83-4.68s5.35-7.36,5.35-12.93-1.78-10.04-5.35-13.16c-3.57-3.12-8.7-4.68-15.83-4.68h-18.73v35.24h18.73v.22Z"/>
  <path class="st0" d="M300.17,660.37h-50.62l-9.37,23.42h-34.57l52.85-119.98h33.23l53.08,119.98h-35.24l-9.59-23.42h.22ZM290.14,635.39l-15.39-38.58-15.39,38.36h30.78v.22Z"/>
  <path class="st0" d="M470.78,656.8v26.76h-107.49v-21.19l60.66-71.81h-58.88v-26.76h103.26v21.19l-60.66,71.81h63.11,0Z"/>
  <path class="st0" d="M602.14,656.8v26.76h-107.49v-21.19l60.66-71.81h-59.1v-26.76h103.26v21.19l-60.66,71.81h63.34Z"/>
</svg>